<svg id="visual" viewBox="0 0 900 600" width="900" height="600" xmlns="http://www.w3.org/2000/svg" xmlns:xlink="http://www.w3.org/1999/xlink" version="1.1"><path d="M0 378L15 378.3C30 378.7 60 379.3 90 392.8C120 406.3 150 432.7 180 445.3C210 458 240 457 270 449.5C300 442 330 428 360 430.8C390 433.7 420 453.3 450 446.8C480 440.3 510 407.7 540 402.5C570 397.3 600 419.7 630 429.7C660 439.7 690 437.3 720 428C750 418.7 780 402.3 810 396.2C840 390 870 394 885 396L900 398L900 601L885 601C870 601 840 601 810 601C780 601 750 601 720 601C690 601 660 601 630 601C600 601 570 601 540 601C510 601 480 601 450 601C420 601 390 601 360 601C330 601 300 601 270 601C240 601 210 601 180 601C150 601 120 601 90 601C60 601 30 601 15 601L0 601Z" fill="#39d7fe"></path><path d="M0 455L15 454.8C30 454.7 60 454.3 90 453C120 451.7 150 449.3 180 445.8C210 442.3 240 437.7 270 442C300 446.3 330 459.7 360 456.7C390 453.7 420 434.3 450 433C480 431.7 510 448.3 540 462.5C570 476.7 600 488.3 630 481.3C660 474.3 690 448.7 720 449.2C750 449.7 780 476.3 810 481C840 485.7 870 468.3 885 459.7L900 451L900 601L885 601C870 601 840 601 810 601C780 601 750 601 720 601C690 601 660 601 630 601C600 601 570 601 540 601C510 601 480 601 450 601C420 601 390 601 360 601C330 601 300 601 270 601C240 601 210 601 180 601C150 601 120 601 90 601C60 601 30 601 15 601L0 601Z" fill="#2cc4e6"></path><path d="M0 452L15 451.5C30 451 60 450 90 461.2C120 472.3 150 495.7 180 497.5C210 499.3 240 479.7 270 474.2C300 468.7 330 477.3 360 480C390 482.7 420 479.3 450 479.2C480 479 510 482 540 490.7C570 499.3 600 513.7 630 519.7C660 525.7 690 523.3 720 512.5C750 501.7 780 482.3 810 472.7C840 463 870 463 885 463L900 463L900 601L885 601C870 601 840 601 810 601C780 601 750 601 720 601C690 601 660 601 630 601C600 601 570 601 540 601C510 601 480 601 450 601C420 601 390 601 360 601C330 601 300 601 270 601C240 601 210 601 180 601C150 601 120 601 90 601C60 601 30 601 15 601L0 601Z" fill="#1fb1cf"></path><path d="M0 543L15 538.5C30 534 60 525 90 516.8C120 508.7 150 501.3 180 506.8C210 512.3 240 530.7 270 539.5C300 548.3 330 547.7 360 547.3C390 547 420 547 450 544.2C480 541.3 510 535.7 540 532.7C570 529.7 600 529.3 630 523.2C660 517 690 505 720 504.8C750 504.7 780 516.3 810 520.7C840 525 870 522 885 520.5L900 519L900 601L885 601C870 601 840 601 810 601C780 601 750 601 720 601C690 601 660 601 630 601C600 601 570 601 540 601C510 601 480 601 450 601C420 601 390 601 360 601C330 601 300 601 270 601C240 601 210 601 180 601C150 601 120 601 90 601C60 601 30 601 15 601L0 601Z" fill="#119eb8"></path><path d="M0 574L15 571.7C30 569.3 60 564.7 90 564.7C120 564.7 150 569.3 180 573C210 576.7 240 579.3 270 575.2C300 571 330 560 360 554.3C390 548.7 420 548.3 450 553.2C480 558 510 568 540 574.8C570 581.7 600 585.3 630 576.8C660 568.3 690 547.7 720 543.2C750 538.7 780 550.3 810 551.3C840 552.3 870 542.7 885 537.8L900 533L900 601L885 601C870 601 840 601 810 601C780 601 750 601 720 601C690 601 660 601 630 601C600 601 570 601 540 601C510 601 480 601 450 601C420 601 390 601 360 601C330 601 300 601 270 601C240 601 210 601 180 601C150 601 120 601 90 601C60 601 30 601 15 601L0 601Z" fill="#008ca2"></path></svg>