<svg id="visual" viewBox="0 0 1920 1080" width="1920" height="1080" xmlns="http://www.w3.org/2000/svg" xmlns:xlink="http://www.w3.org/1999/xlink" version="1.1"><path d="M0 836L274 820L549 816L823 911L1097 869L1371 869L1646 850L1920 870L1920 1081L1646 1081L1371 1081L1097 1081L823 1081L549 1081L274 1081L0 1081Z" fill="#2376d9"></path><path d="M0 901L274 904L549 874L823 943L1097 880L1371 876L1646 942L1920 882L1920 1081L1646 1081L1371 1081L1097 1081L823 1081L549 1081L274 1081L0 1081Z" fill="#008fdf"></path><path d="M0 927L274 947L549 976L823 917L1097 938L1371 978L1646 936L1920 937L1920 1081L1646 1081L1371 1081L1097 1081L823 1081L549 1081L274 1081L0 1081Z" fill="#00a5de"></path><path d="M0 1001L274 1015L549 1003L823 982L1097 954L1371 998L1646 995L1920 954L1920 1081L1646 1081L1371 1081L1097 1081L823 1081L549 1081L274 1081L0 1081Z" fill="#00b8d5"></path><path d="M0 1041L274 1008L549 1045L823 1035L1097 1034L1371 1013L1646 1052L1920 1037L1920 1081L1646 1081L1371 1081L1097 1081L823 1081L549 1081L274 1081L0 1081Z" fill="#08c7c0"></path></svg>